<svg width="113" height="44" viewBox="0 0 113 44" fill="none" xmlns="http://www.w3.org/2000/svg">
<path d="M41.9947 15.9618H34.6296V10H56.2293V15.9618H48.8302V34.5481H41.9947V15.9618Z" fill="#08121C"/>
<path d="M62.1878 15.9618H54.8228V10H76.4224V15.9618H69.0234V34.5481H62.1878V15.9618Z" fill="#FF4310"/>
<path d="M79.5925 16.5226H86.428V34.5481H79.5925V16.5226ZM80.0516 10H86.0418V14.84H80.0516V10Z" fill="#08121C"/>
<path d="M90.939 10H103.59C106.692 10 108.876 10.7712 110.321 12.1734C111.307 13.1912 111.907 14.487 111.907 16.1721V16.2422C111.907 19.0829 110.321 20.7655 108.101 21.7132C111.096 22.6947 112.998 24.3774 112.998 27.7112V27.7813C112.998 32.0242 109.58 34.5505 103.66 34.5505H90.939V10V10ZM105.176 17.5743C105.176 16.1721 104.153 15.471 102.074 15.471H97.5996V19.784H101.899C104.012 19.784 105.176 19.0829 105.176 17.6444V17.5743ZM106.162 26.7635C106.162 25.3952 105.106 24.5538 102.815 24.5538H97.5996V29.0771H102.885C104.999 29.0771 106.162 28.2697 106.162 26.8336V26.7635V26.7635Z" fill="#08121C"/>
<path d="M19.8095 0V26.1631H13.8339V17.8393H7.26316V26.1631H4.59599C0.510221 26.1631 -1.53752 21.2457 1.35312 18.3712L19.8095 0Z" fill="#FF4310"/>
<path d="M28.5495 22.8147L7.26318 44V17.8369H13.8339V26.1607H19.8096V17.8369H26.4775C29.0864 17.8369 30.3932 20.9774 28.5495 22.8147" fill="#08121C"/>
</svg>
